{"title":"The November Man 2014 READ NFO HDRip x264-KingStoner [GloDLS]","uid":11095399,"size":1487937586,"categoryP":"video","categoryS":"hd___movies","magnet":"?xt=urn:btih:c438fa8b33d81d71f1e8f33aa02c6de4aa35be18&amp;dn=The+November+Man+2014+READ+NFO+HDRip+x264-KingStoner+%5BGloDLS%5D&amp;tr=udp%3A%2F%2Ftracker.openbittorrent.com%3A80&amp;tr=udp%3A%2F%2Fopen.demonii.com%3A1337&amp;tr=udp%3A%2F%2Ftracker.coppersurfer.tk%3A6969&amp;tr=udp%3A%2F%2Fexodus.desync.com%3A6969","seeders":0,"leechers":0,"uploader":"inovai","files":3,"time":1411585482,"description":"The November Man 2014 READ NFO HDRip x264-KingStoner [GloDLS]\n\nCover:\n &lt;a href=&quot;\nhttp://forum.primetimeshow.in/viewtopic.php?f=7&amp;t=653&quot; rel=&quot;nofollow&quot; target=&quot;_NEW&quot;&gt;\nhttp://forum.primetimeshow.in/viewtopic.php?f=7&amp;t=653&lt;/a&gt;\n\nScreenshots:\n &lt;a href=&quot;\nhttp://m.primetimeshow.in/share-E932_5422F844.html&quot; rel=&quot;nofollow&quot; target=&quot;_NEW&quot;&gt;\nhttp://m.primetimeshow.in/share-E932_5422F844.html&lt;/a&gt;\n &lt;a href=&quot;\nhttp://m.primetimeshow.in/share-8DF6_5422F844.html&quot; rel=&quot;nofollow&quot; target=&quot;_NEW&quot;&gt;\nhttp://m.primetimeshow.in/share-8DF6_5422F844.html&lt;/a&gt;\n &lt;a href=&quot;\nhttp://m.primetimeshow.in/share-9E14_5422F844.html&quot; rel=&quot;nofollow&quot; target=&quot;_NEW&quot;&gt;\nhttp://m.primetimeshow.in/share-9E14_5422F844.html&lt;/a&gt;\n &lt;a href=&quot;\nhttp://m.primetimeshow.in/share-549E_5422F844.html&quot; rel=&quot;nofollow&quot; target=&quot;_NEW&quot;&gt;\nhttp://m.primetimeshow.in/share-549E_5422F844.html&lt;/a&gt;\n &lt;a href=&quot;\nhttp://m.primetimeshow.in/share-86AF_5422F844.html&quot; rel=&quot;nofollow&quot; target=&quot;_NEW&quot;&gt;\nhttp://m.primetimeshow.in/share-86AF_5422F844.html&lt;/a&gt;\n\n\nGenres: Action | Crime | Thriller\nSubtitle: HC English When Needed\nSource: Web-dl 1080p Own\nSample: Yes\n\nGeneral\nComplete name : C:\\Users\\user\\Videos\\The November Man 2014 READ NFO HDRip x264-KingStoner.mp4\nFormat : MPEG-4\nFormat profile : Base Media\nCodec ID : isom\nFile size : 1.36 GiB\nDuration : 1h 43mn\nOverall bit rate : 1 885 Kbps\nWriting application : Lavf54.63.104\n\nVideo\nID : 1\nFormat : AVC\nFormat/Info : Advanced Video Codec\nFormat profile : &lt;a class=&quot;__cf_email__&quot; href=&quot;/cdn-cgi/l/email-protection&quot; data-cfemail=&quot;460e2f212e060a756876&quot;&gt;[email&amp;#160;protected]&lt;/a&gt;&lt;script data-cfhash='f9e31' type=&quot;text/javascript&quot;&gt;\n/* &lt;![CDATA[ */!function(){try{var t=&quot;currentScript&quot;in document?document.currentScript:function(){for(var t=document.getElementsByTagName(&quot;script&quot;),e=t.length;e--;)if(t[e].getAttribute(&quot;data-cfhash&quot;))return t[e]}();if(t&amp;&amp;t.previousSibling){var e,r,n,i,c=t.previousSibling,a=c.getAttribute(&quot;data-cfemail&quot;);if(a){for(e=&quot;&quot;,r=parseInt(a.substr(0,2),16),n=2;a.length-n;n+=2)i=parseInt(a.substr(n,2),16)^r,e+=String.fromCharCode(i);e=document.createTextNode(e),c.parentNode.replaceChild(e,c)}t.parentNode.removeChild(t);}}catch(u){}}()/* ]]&gt; */&lt;/script&gt;\nFormat settings, CABAC : Yes\nFormat settings, ReFrames : 4 frames\nCodec ID : avc1\nCodec ID/Info : Advanced Video Coding\nDuration : 1h 43mn\nBit rate : 1 700 Kbps\nWidth : 720 pixels\nHeight : 302 pixels\nDisplay aspect ratio : 2.40:1\nFrame rate mode : Constant\nFrame rate : 25.000 fps\nColor space : YUV\nChroma subsampling : 4:2:0\nBit depth : 8 bits\nScan type : Progressive\nBits/(Pixel*Frame) : 0.313\nStream size : 1.21 GiB (89%)\nWriting library : x264 core 123 r2189 35cf912\nEncoding settings : cabac=1 / ref=3 / deblock=1:0:0 / analyse=0x3:0x133 / me=hex / subme=7 / psy=1 / psy_rd=1.00:0.00 / mixed_ref=1 / me_range=16 / chroma_me=1 / trellis=1 / 8x8dct=1 / cqm=0 / deadzone=21,11 / fast_pskip=1 / chroma_qp_offset=-2 / threads=6 / sliced_threads=0 / nr=0 / decimate=1 / interlaced=0 / bluray_compat=0 / constrained_intra=0 / bframes=3 / b_pyramid=2 / b_adapt=1 / b_bias=0 / direct=1 / weightb=1 / open_gop=0 / weightp=2 / keyint=250 / keyint_min=25 / scenecut=40 / intra_refresh=0 / rc_lookahead=40 / rc=abr / mbtree=1 / bitrate=1700 / ratetol=1.0 / qcomp=0.60 / qpmin=10 / qpmax=51 / qpstep=4 / ip_ratio=1.40 / aq=1:1.00\n\nAudio\nID : 2\nFormat : AAC\nFormat/Info : Advanced Audio Codec\nFormat profile : LC\nCodec ID : 40\nDuration : 1h 43mn\nBit rate mode : Constant\nBit rate : 192 Kbps\nChannel(s) : 2 channels\nChannel(s)_Original : 6 channels\nChannel positions : Front: L C R, Side: L R, LFE\nSampling rate : 48.0 KHz\nCompression mode : Lossy\nStream size : 142 MiB (10%)\nLanguage : unk\n\nThanks to KingStoner [GloDLS]!!\n\nSeed n ENjoy!!","torrent":{"xt":"urn:btih:c438fa8b33d81d71f1e8f33aa02c6de4aa35be18","amp;dn":"The+November+Man+2014+READ+NFO+HDRip+x264-KingStoner+%5BGloDLS%5D","amp;tr":["udp%3A%2F%2Ftracker.openbittorrent.com%3A80","udp%3A%2F%2Fopen.demonii.com%3A1337","udp%3A%2F%2Ftracker.coppersurfer.tk%3A6969","udp%3A%2F%2Fexodus.desync.com%3A6969"],"infoHash":"c438fa8b33d81d71f1e8f33aa02c6de4aa35be18","infoHashBuffer":{"type":"Buffer","data":[196,56,250,139,51,216,29,113,241,232,243,58,160,44,109,228,170,53,190,24]},"announce":[],"urlList":[]}}